<svg width="151" height="63" viewBox="0 0 151 63" fill="none" xmlns="http://www.w3.org/2000/svg">
<g clip-path="url(#clip0_0_125)">
<g clip-path="url(#clip1_0_125)">
<path d="M52.8871 22.9887C52.7705 26.6268 54.6043 28.2378 54.6496 29.261C54.628 29.4692 54.5565 29.6693 54.4409 29.8445C54.3254 30.0197 54.1692 30.165 53.9855 30.2681L51.9119 31.7072C51.6436 31.8938 51.3273 32.0007 50.9999 32.0156C50.9303 32.0124 49.6732 32.3096 47.6823 27.9021C46.4676 29.4055 44.9222 30.6133 43.1642 31.4332C41.4062 32.2531 39.4823 32.6633 37.5398 32.6324C34.9026 32.7754 27.7554 31.1483 28.1232 23.6039C27.8656 17.4553 33.6407 13.6357 39.6134 13.9585C40.7635 13.9618 43.1124 14.018 47.2255 14.9656V12.4567C47.6612 8.20668 44.8441 4.90911 39.9665 5.40383C39.5777 5.40543 36.8238 5.32352 32.5407 7.02771C31.3484 7.57061 31.1962 7.48067 30.7993 7.48067C29.5989 7.48067 30.093 4.03051 30.323 3.59362C31.167 2.56564 36.1321 0.646211 41.0049 0.673516C44.263 0.387814 47.5036 1.38483 50.0263 3.44906C51.0518 4.58639 51.8341 5.91801 52.3261 7.3635C52.8181 8.80898 53.0095 10.3383 52.8888 11.8592L52.8871 22.9887ZM38.8876 28.1912C44.1411 28.1157 46.3653 24.9836 46.8723 23.2971C47.2708 21.6828 47.2044 20.6613 47.2044 18.8961C45.6379 18.5234 43.383 18.117 40.7959 18.1138C38.3417 17.9307 33.8593 19.0181 34.0343 23.2955C33.8334 25.9923 35.8357 28.339 38.8876 28.1912ZM66.5756 31.8936C65.3023 32.0092 64.7094 31.1129 64.5215 30.2279L56.4542 3.78155C56.2971 3.33502 56.1934 2.87403 56.1432 2.40341C56.1135 2.20939 56.1626 2.01158 56.2799 1.85346C56.3971 1.69534 56.5729 1.58985 56.7685 1.56015C56.8074 1.55372 56.4235 1.56015 60.3729 1.56015C61.7952 1.4188 62.2585 2.5287 62.4059 3.2258L68.1923 25.8462L73.564 3.2258C73.6499 2.70859 74.0403 1.44771 75.6375 1.58103H78.4174C78.7689 1.55212 80.2171 1.50072 80.4714 3.24668L85.8853 26.1562L91.858 3.24668C91.9357 2.89652 92.2986 1.42041 93.9121 1.58103H97.1066C97.2443 1.56015 98.1028 1.45092 97.957 2.95916C97.8874 3.25631 98.5094 1.24694 89.4119 30.2488C89.2256 31.1338 88.6311 32.0301 87.3578 31.9144H84.3301C82.5579 32.0992 82.3036 30.3628 82.276 30.1878L76.9043 8.1617L71.5942 30.1653C71.5683 30.3404 71.3139 32.0767 69.5401 31.892H66.5756V31.8936ZM110.878 32.7979C109.925 32.7995 105.383 32.7497 101.586 30.8238C101.207 30.665 100.885 30.3984 100.66 30.0579C100.435 29.7173 100.317 29.3181 100.321 28.9108V27.1841C100.321 25.8269 101.325 26.0758 101.751 26.2381C103.377 26.8902 104.421 27.3849 106.418 27.78C112.355 28.9895 114.966 27.4106 115.606 27.0605C117.736 25.806 117.905 22.9357 116.457 21.4467C114.759 20.0349 113.949 19.9819 107.85 18.0737C107.098 17.8665 100.771 15.8876 100.756 9.66352C100.657 5.12756 104.814 0.639785 112.018 0.676728C114.071 0.675122 119.539 1.3401 121.02 3.18564C121.239 3.52134 121.347 3.91647 121.331 4.31642V5.9403C121.331 6.65346 121.069 7.01004 120.542 7.01004C119.293 6.87191 117.077 5.2159 112.579 5.28336C111.462 5.22554 106.117 5.42953 106.356 9.29408C106.287 12.3395 110.667 13.4815 111.168 13.6132C117.074 15.3752 119.049 15.6676 121.393 18.3644C124.169 21.9382 122.672 26.1224 122.097 27.2693C119.007 33.291 111.014 32.8011 110.878 32.7979ZM117.39 49.6407C106.045 57.948 89.5771 62.3699 75.516 62.3699C56.5434 62.494 38.2102 55.5768 24.1203 42.9781C23.0625 42.032 23.9955 40.7358 25.2818 41.457C40.9117 50.322 58.608 54.9799 76.6144 54.9685C90.061 54.897 103.361 52.1923 115.75 47.0097C117.659 46.2066 119.277 48.2625 117.39 49.6407ZM122.118 44.2936C120.667 42.4432 112.515 43.4294 108.866 43.8615C107.766 43.9852 107.579 43.0391 108.576 42.3404C115.067 37.8157 125.728 39.1119 126.952 40.633C128.175 42.1541 126.62 52.7455 120.544 57.8051C119.611 58.5873 118.718 58.1745 119.133 57.1465C120.5 53.7333 123.57 46.1455 122.118 44.2936Z" fill="white"/>
</g>
</g>
<defs>
<clipPath id="clip0_0_125">
<rect width="151" height="62" fill="white" transform="translate(0 0.5)"/>
</clipPath>
<clipPath id="clip1_0_125">
<rect width="104" height="62" fill="white" transform="translate(23.5 0.5)"/>
</clipPath>
</defs>
</svg>
