<svg width="147" height="73" viewBox="0 0 147 73" fill="none" xmlns="http://www.w3.org/2000/svg">
<g clip-path="url(#clip0_0_128)">
<g clip-path="url(#clip1_0_128)">
<path d="M104.926 28.1614C102.531 28.1614 100.424 29.1556 98.8748 30.7111C93.1748 26.7503 85.4949 24.2006 76.9849 23.928L81.4075 3.91556L95.4899 7.09061C95.4899 10.5543 98.3 13.3766 101.749 13.3766C105.261 13.3766 108.087 10.4741 108.087 7.01043C108.087 3.54674 105.277 0.644287 101.749 0.644287C99.2899 0.644287 97.1664 2.1356 96.1126 4.17213L80.5613 0.70843C79.779 0.499966 79.0126 1.06121 78.805 1.84696L73.9512 23.912C65.505 24.2648 57.905 26.8144 52.1891 30.7752C50.6403 29.1556 48.4529 28.1614 46.058 28.1614C37.1807 28.1614 34.2748 40.124 42.4017 44.2131C42.1143 45.4799 41.9865 46.8269 41.9865 48.1739C41.9865 61.6118 57.0588 72.5 75.5638 72.5C94.1487 72.5 109.221 61.6118 109.221 48.1739C109.221 46.8269 109.077 45.4158 108.726 44.149C116.693 40.0438 113.755 28.1614 104.926 28.1614ZM55.2865 45.063C55.2865 41.5351 58.0966 38.6968 61.6252 38.6968C65.0739 38.6968 67.884 41.5191 67.884 45.063C67.884 48.5267 65.0739 51.349 61.6252 51.349C58.1126 51.365 55.2865 48.5267 55.2865 45.063ZM89.5025 60.0563C83.6907 65.8933 67.2933 65.8933 61.4815 60.0563C60.8428 59.4951 60.8428 58.5009 61.4815 57.8594C62.0403 57.2982 63.0302 57.2982 63.5891 57.8594C68.0277 62.4296 82.7487 62.5098 87.379 57.8594C87.9378 57.2982 88.9277 57.2982 89.4865 57.8594C90.1412 58.5009 90.1412 59.4951 89.5025 60.0563ZM89.3748 51.365C85.926 51.365 83.1159 48.5427 83.1159 45.079C83.1159 41.5512 85.926 38.7129 89.3748 38.7129C92.8874 38.7129 95.7134 41.5351 95.7134 45.079C95.6975 48.5267 92.8874 51.365 89.3748 51.365Z" fill="white"/>
</g>
</g>
<defs>
<clipPath id="clip0_0_128">
<rect width="151" height="72" fill="white" transform="translate(0 0.5)"/>
</clipPath>
<clipPath id="clip1_0_128">
<rect width="76" height="72" fill="white" transform="translate(37.5 0.5)"/>
</clipPath>
</defs>
</svg>
