<svg width="151" height="43" viewBox="0 0 151 43" fill="none" xmlns="http://www.w3.org/2000/svg">
<g clip-path="url(#clip0_0_122)">
<g clip-path="url(#clip1_0_122)">
<path d="M50.5555 3.79318L43.5869 5.25682L43.5547 27.9114C43.5547 32.0955 46.7413 34.8 50.9739 34.8C53.3236 34.8 55.0457 34.3705 55.9952 33.8614V28.4841C55.0778 28.85 50.5716 30.1546 50.5716 25.9864V15.9318H55.9952V9.91818H50.5716L50.5555 3.79318ZM64.895 12.0023L64.4605 9.91818H58.2805V34.2909H65.41V17.8886C67.0999 15.6932 69.9485 16.1227 70.8658 16.4091V9.91818C69.9002 9.58409 66.5688 8.96364 64.895 12.0023ZM79.7496 0.5L72.5717 2.01136V7.77045L79.7496 6.25909V0.5ZM31.2269 17.0932C31.2269 15.9955 32.1603 15.5659 33.6571 15.55C35.8297 15.55 38.5978 16.2023 40.7705 17.3636V10.7136C38.4047 9.79091 36.0389 9.425 33.6732 9.425C27.8794 9.425 24.0169 12.4159 24.0169 17.4114C24.0169 25.2386 34.8802 23.9659 34.8802 27.3386C34.8802 28.6432 33.7375 29.0727 32.1442 29.0727C29.7785 29.0727 26.7206 28.1023 24.3227 26.8136V33.1773C26.9781 34.3068 29.6658 34.7841 32.1281 34.7841C38.0667 34.7841 42.1546 32.2705 42.1546 27.1795C42.1546 18.7636 31.2269 20.275 31.2269 17.0932ZM127.001 22.3909C127.001 15.1523 123.46 9.44091 116.669 9.44091C109.877 9.44091 105.741 15.1523 105.741 22.3432C105.741 30.8545 110.617 34.7841 117.57 34.7841C120.982 34.7841 123.541 34.0205 125.488 32.9545V27.6409C123.541 28.6114 121.304 29.2 118.471 29.2C115.687 29.2 113.241 28.2295 112.919 24.9205H126.904C126.936 24.5545 127.001 23.075 127.001 22.3909ZM112.854 19.7182C112.854 16.5364 114.834 15.2 116.62 15.2C118.375 15.2 120.241 16.5364 120.241 19.7182H112.854ZM94.6846 9.44091C91.8842 9.44091 90.0817 10.7455 89.0839 11.6523L88.7138 9.90227H82.4211V42.4841L89.5667 40.9886L89.5828 33.0023C90.6128 33.75 92.1417 34.7841 94.6363 34.7841C99.7541 34.7841 104.421 31.0932 104.421 22.1205C104.437 13.9114 99.7058 9.44091 94.6846 9.44091ZM92.9786 28.9296C91.3049 28.9296 90.3071 28.325 89.615 27.5932L89.5667 17.0932C90.3071 16.2818 91.3371 15.6932 92.9786 15.6932C95.5858 15.6932 97.3883 18.5886 97.3883 22.2795C97.4044 26.0818 95.6341 28.9296 92.9786 28.9296ZM72.5878 34.2909H79.7657V9.91818H72.5878V34.2909Z" fill="white"/>
</g>
</g>
<defs>
<clipPath id="clip0_0_122">
<rect width="151" height="42" fill="white" transform="translate(0 0.5)"/>
</clipPath>
<clipPath id="clip1_0_122">
<rect width="103" height="42" fill="white" transform="translate(24 0.5)"/>
</clipPath>
</defs>
</svg>
